<svg width="71" height="71" viewBox="0 0 71 71" fill="none" xmlns="http://www.w3.org/2000/svg">
<path d="M63.702 17.6945C63.747 18.471 63.747 19.2477 63.747 20.0242C63.747 43.7093 49.1056 71 22.3453 71C14.1009 71 6.44231 68.06 0 62.9571C1.17137 63.1234 2.29752 63.1789 3.51396 63.1789C10.3165 63.1789 16.5787 60.3501 21.5794 55.5243C15.1821 55.3578 9.82106 50.1993 7.97394 43.0992C8.87504 43.2655 9.77599 43.3765 10.7222 43.3765C12.0286 43.3765 13.3352 43.1545 14.5515 42.7664C7.88394 41.1022 2.88314 33.8914 2.88314 25.1828V24.961C4.82025 26.2922 7.07299 27.1243 9.46051 27.2351C5.54107 24.0178 2.97328 18.5265 2.97328 12.3139C2.97328 8.98587 3.69396 5.93509 4.95546 3.27257C12.1186 14.1444 22.8858 21.2443 34.9593 22.021C34.7341 20.6898 34.5989 19.3032 34.5989 17.9164C34.5989 8.04288 41.0863 0 49.1504 0C53.3401 0 57.1243 2.16328 59.7824 5.65781C63.071 4.88129 66.2245 3.38355 69.0178 1.33126C67.9365 5.49151 65.6389 8.98604 62.6206 11.2046C65.5489 10.8165 68.3871 9.81789 71 8.43131C69.0181 11.9812 66.5402 15.1428 63.702 17.6945Z" fill="black"/>
</svg>
