<svg width="71" height="71" viewBox="0 0 71 71" fill="none" xmlns="http://www.w3.org/2000/svg">
<path d="M60.3658 10.3172C53.7254 3.66094 44.8821 0 35.4842 0C16.0859 0 0.301116 15.7848 0.301116 35.183C0.301116 41.3797 1.91763 47.4337 4.99219 52.7746L0 71L18.6533 66.1029C23.7882 68.908 29.5728 70.3819 35.4683 70.3819H35.4842C54.8665 70.3819 71 54.5971 71 35.1989C71 25.8009 67.0062 16.9734 60.3658 10.3172ZM35.4842 64.4547C30.2225 64.4547 25.0719 63.0442 20.5868 60.3817L19.525 59.7478L8.46295 62.648L11.4107 51.8554L10.7134 50.746C7.78147 46.0866 6.2442 40.7141 6.2442 35.183C6.2442 19.0654 19.3665 5.94308 35.5 5.94308C43.3132 5.94308 50.6509 8.98594 56.1661 14.517C61.6813 20.048 65.0728 27.3857 65.0569 35.1989C65.0569 51.3324 51.6018 64.4547 35.4842 64.4547ZM51.5225 42.5525C50.6509 42.1087 46.3243 39.985 45.5161 39.6998C44.7078 39.3987 44.1214 39.256 43.535 40.1435C42.9487 41.031 41.2688 42.9962 40.7458 43.5984C40.2386 44.1848 39.7156 44.2641 38.844 43.8203C33.6775 41.2371 30.2859 39.2085 26.8786 33.3605C25.9752 31.8074 27.7819 31.9183 29.4618 28.5585C29.7471 27.9721 29.6045 27.465 29.3826 27.0212C29.1607 26.5775 27.4016 22.2509 26.6725 20.4917C25.9594 18.7801 25.2304 19.0179 24.6915 18.9862C24.1844 18.9545 23.598 18.9545 23.0116 18.9545C22.4252 18.9545 21.4743 19.1763 20.6661 20.048C19.8578 20.9355 17.5915 23.0592 17.5915 27.3857C17.5915 31.7123 20.7453 35.8962 21.1732 36.4826C21.617 37.069 27.3699 45.944 36.1973 49.7634C41.7759 52.1723 43.9629 52.3783 46.7522 51.9663C48.448 51.7127 51.9504 49.8426 52.6795 47.7824C53.4085 45.7221 53.4085 43.9629 53.1866 43.5984C52.9806 43.2022 52.3942 42.9804 51.5225 42.5525Z" fill="black"/>
</svg>
